<?xml version="1.0" encoding="UTF-8"?>
<!DOCTYPE svg PUBLIC "-//W3C//DTD SVG 1.1//EN" "http://www.w3.org/Graphics/SVG/1.1/DTD/svg11.dtd">
<svg xmlns="http://www.w3.org/2000/svg" version="1.1" width="500px" height="500px" style="shape-rendering:geometricPrecision; text-rendering:geometricPrecision; image-rendering:optimizeQuality; fill-rule:evenodd; clip-rule:evenodd" xmlns:xlink="http://www.w3.org/1999/xlink">
<g><path style="opacity:0.999" fill="#86db61" d="M 216.5,125.5 C 221.638,125.49 225.805,127.49 229,131.5C 234.613,140.32 234.613,148.986 229,157.5C 223.663,162.613 218.163,162.78 212.5,158C 206.395,150.408 204.895,141.908 208,132.5C 209.851,128.843 212.684,126.51 216.5,125.5 Z"/></g>
<g><path style="opacity:0.997" fill="#8bdc67" d="M 287.5,176.5 C 287.737,177.791 287.404,178.791 286.5,179.5C 278.051,176.93 269.551,174.596 261,172.5C 254.454,176.608 247.454,179.608 240,181.5C 232.737,203.334 230.07,225.668 232,248.5C 232.985,254.791 235.152,260.625 238.5,266C 238.167,266.167 237.833,266.333 237.5,266.5C 228.38,258.216 220.546,248.883 214,238.5C 209.69,249.815 202.69,259.148 193,266.5C 194.802,258.278 196.468,249.944 198,241.5C 200.183,225.115 199.85,208.781 197,192.5C 195.923,185.436 193.756,178.769 190.5,172.5C 175.179,175.324 161.179,181.158 148.5,190C 131.575,207.281 130.741,225.115 146,243.5C 161.051,258.617 178.551,270.117 198.5,278C 208.092,281.807 217.758,285.307 227.5,288.5C 227.842,289.338 228.508,289.672 229.5,289.5C 250.424,295.485 271.758,299.151 293.5,300.5C 299.468,299.635 305.468,299.302 311.5,299.5C 314.01,299.054 316.01,299.72 317.5,301.5C 302.779,304.357 287.779,304.857 272.5,303C 238.933,297.943 206.933,287.943 176.5,273C 161.921,265.424 149.421,255.257 139,242.5C 127.165,224.281 128.498,206.947 143,190.5C 156.443,179.119 171.943,171.952 189.5,169C 181.717,159.603 175.884,149.103 172,137.5C 171.333,135.833 171.333,134.167 172,132.5C 179.53,140.365 187.364,147.865 195.5,155C 202.851,160.175 210.851,164.009 219.5,166.5C 243.1,165.327 265.766,168.66 287.5,176.5 Z"/></g>
<g><path style="opacity:0.827" fill="#b8e9a0" d="M 259.5,142.5 C 260.458,142.953 261.292,143.619 262,144.5C 263.201,152.198 265.035,152.198 267.5,144.5C 268.5,143.167 269.5,143.167 270.5,144.5C 264.51,159.553 260.843,158.886 259.5,142.5 Z"/></g>
<g><path style="opacity:0.851" fill="#b9eaa2" d="M 271.5,147.5 C 279.877,147.274 281.544,150.441 276.5,157C 269.473,156.767 267.807,153.601 271.5,147.5 Z M 273.5,149.5 C 275.196,149.685 276.529,150.519 277.5,152C 276.383,153.892 274.716,154.725 272.5,154.5C 272.366,152.708 272.699,151.042 273.5,149.5 Z"/></g>
<g><path style="opacity:0.714" fill="#c4edb0" d="M 282.5,145.5 C 283.586,145.62 284.253,146.287 284.5,147.5C 283.352,151.089 282.685,154.756 282.5,158.5C 281.5,158.5 280.5,158.5 279.5,158.5C 280.349,154.106 281.349,149.772 282.5,145.5 Z"/></g>
<g><path style="opacity:0.835" fill="#b7e99f" d="M 285.5,150.5 C 286.586,150.62 287.253,151.287 287.5,152.5C 286.954,154.135 286.62,155.801 286.5,157.5C 287.833,157.5 289.167,157.5 290.5,157.5C 290.565,155.304 291.232,153.304 292.5,151.5C 293.615,155.048 293.115,158.382 291,161.5C 284.656,160.266 282.823,156.599 285.5,150.5 Z"/></g>
<g><path style="opacity:0.898" fill="#b7e9a0" d="M 307.5,155.5 C 309.701,155.858 311.035,157.192 311.5,159.5C 310.311,160.429 308.978,160.762 307.5,160.5C 307.178,162.722 307.845,164.556 309.5,166C 309,166.5 308.5,167 308,167.5C 303.937,165.401 303.437,162.567 306.5,159C 305.833,158.667 305.167,158.333 304.5,158C 305.571,157.148 306.571,156.315 307.5,155.5 Z"/></g>
<g><path style="opacity:0.98" fill="#bbeaa3" d="M 296.5,152.5 C 303.998,154.104 305.498,158.104 301,164.5C 299.555,162.388 299.722,160.222 301.5,158C 300.289,156.422 298.955,156.255 297.5,157.5C 296.948,159.333 296.115,161 295,162.5C 294.308,161.975 293.808,161.308 293.5,160.5C 294.508,157.805 295.508,155.138 296.5,152.5 Z"/></g>
<g><path style="opacity:0.878" fill="#b1e797" d="M 319.5,167.5 C 316.655,171.395 313.822,171.395 311,167.5C 309.833,162 312,159.833 317.5,161C 319.229,162.789 319.896,164.956 319.5,167.5 Z M 315.5,162.5 C 316.289,162.783 316.956,163.283 317.5,164C 316.184,164.528 315.517,164.028 315.5,162.5 Z"/></g>
<g><path style="opacity:0.875" fill="#aae58f" d="M 327.5,172.5 C 326.167,171.833 324.833,171.167 323.5,170.5C 323.167,170.5 322.833,170.5 322.5,170.5C 321.58,169.933 321.246,170.599 321.5,172.5C 323.483,172.157 324.817,172.824 325.5,174.5C 320.677,174.673 318.677,172.339 319.5,167.5C 321.468,165.685 323.802,165.185 326.5,166C 328.608,168.016 328.942,170.183 327.5,172.5 Z M 323.5,168.5 C 324.077,167.227 324.743,167.227 325.5,168.5C 325.03,169.463 324.363,169.463 323.5,168.5 Z"/></g>
<g><path style="opacity:0.908" fill="#ade694" d="M 231.5,170.5 C 238.046,169.208 244.713,169.374 251.5,171C 244.825,171.389 238.159,171.222 231.5,170.5 Z"/></g>
<g><path style="opacity:0.008" fill="#f1fbec" d="M 322.5,170.5 C 322.833,171.833 323.167,171.833 323.5,170.5C 324.833,171.167 326.167,171.833 327.5,172.5C 327.167,173.5 326.5,174.167 325.5,174.5C 324.817,172.824 323.483,172.157 321.5,172.5C 321.246,170.599 321.58,169.933 322.5,170.5 Z"/></g>
<g><path style="opacity:0.847" fill="#bbeaa4" d="M 331.5,169.5 C 333.394,170.048 335.06,171.048 336.5,172.5C 333.178,173.219 330.512,174.886 328.5,177.5C 327.417,176.635 327.251,175.635 328,174.5C 329.176,172.804 330.343,171.138 331.5,169.5 Z"/></g>
<g><path style="opacity:1" fill="#ff794f" d="M 302.5,182.5 C 302.5,185.167 302.5,187.833 302.5,190.5C 302.443,191.609 302.11,192.609 301.5,193.5C 300.167,194.5 298.833,195.5 297.5,196.5C 295.548,197.408 293.548,197.241 291.5,196C 285.636,191.733 283.969,186.233 286.5,179.5C 287.404,178.791 287.737,177.791 287.5,176.5C 295.211,171.518 300.211,173.518 302.5,182.5 Z"/></g>
<g><path style="opacity:0.918" fill="#bceba5" d="M 347.5,186.5 C 343.828,189.116 340.661,188.449 338,184.5C 337.43,175.752 341.097,173.418 349,177.5C 351.078,179.681 350.911,181.681 348.5,183.5C 348.213,180.329 346.546,178.329 343.5,177.5C 340.621,178.803 339.955,180.803 341.5,183.5C 343.884,184.011 345.884,185.011 347.5,186.5 Z"/></g>
<g><path style="opacity:0.999" fill="#ff784e" d="M 301.5,202.5 C 303.948,203.473 306.615,203.806 309.5,203.5C 311.833,203.5 314.167,203.5 316.5,203.5C 318.415,203.216 320.081,203.549 321.5,204.5C 319.632,205.263 317.965,206.263 316.5,207.5C 313.698,208.576 310.865,209.576 308,210.5C 302.331,227.563 301.164,244.897 304.5,262.5C 304.5,263.167 304.167,263.5 303.5,263.5C 298.399,259.31 294.232,254.31 291,248.5C 288.804,254.51 285.304,259.51 280.5,263.5C 279.167,263.5 278.5,262.833 278.5,261.5C 282.874,243.359 282.374,225.359 277,207.5C 273.253,200.337 269.253,193.337 265,186.5C 263.75,183.923 263.416,181.257 264,178.5C 269.904,185.074 276.404,190.908 283.5,196C 289.212,199.07 295.212,201.236 301.5,202.5 Z"/></g>
<g><path style="opacity:0.518" fill="#f1d0b2" d="M 302.5,182.5 C 303.452,183.452 304.452,184.452 305.5,185.5C 304.207,187.103 303.207,188.769 302.5,190.5C 302.5,187.833 302.5,185.167 302.5,182.5 Z"/></g>
<g><path style="opacity:0.957" fill="#aee693" d="M 355.5,187.5 C 355.66,189.199 355.494,190.866 355,192.5C 354.536,191.906 354.369,191.239 354.5,190.5C 354.167,189.833 353.833,189.167 353.5,188.5C 352.399,187.402 351.066,187.235 349.5,188C 348.978,188.561 348.645,189.228 348.5,190C 349.43,192.435 351.097,193.935 353.5,194.5C 349.824,195.643 347.49,194.143 346.5,190C 346.989,188.862 347.322,187.695 347.5,186.5C 350.673,183.596 353.339,183.929 355.5,187.5 Z M 353.5,188.5 C 353.833,189.167 354.167,189.833 354.5,190.5C 351.867,193.246 350.534,192.579 350.5,188.5C 351.5,188.5 352.5,188.5 353.5,188.5 Z"/></g>
<g><path style="opacity:0.596" fill="#daf4ce" d="M 353.5,188.5 C 352.5,188.5 351.5,188.5 350.5,188.5C 350.534,192.579 351.867,193.246 354.5,190.5C 354.369,191.239 354.536,191.906 355,192.5C 355.494,190.866 355.66,189.199 355.5,187.5C 356.461,189.265 356.795,191.265 356.5,193.5C 355.833,193.5 355.5,193.833 355.5,194.5C 354.833,194.5 354.167,194.5 353.5,194.5C 351.097,193.935 349.43,192.435 348.5,190C 348.645,189.228 348.978,188.561 349.5,188C 351.066,187.235 352.399,187.402 353.5,188.5 Z M 353.5,188.5 C 353.833,189.167 354.167,189.833 354.5,190.5C 351.867,193.246 350.534,192.579 350.5,188.5C 351.5,188.5 352.5,188.5 353.5,188.5 Z"/></g>
<g><path style="opacity:0.946" fill="#9cde79" d="M 301.5,193.5 C 306.299,196.737 311.299,199.737 316.5,202.5C 316.5,202.833 316.5,203.167 316.5,203.5C 314.167,203.5 311.833,203.5 309.5,203.5C 308.71,202.599 307.71,201.932 306.5,201.5C 303.304,200.071 300.304,198.405 297.5,196.5C 298.833,195.5 300.167,194.5 301.5,193.5 Z"/></g>
<g><path style="opacity:0.976" fill="#b3e89a" d="M 365.5,205.5 C 364.5,205.833 363.833,206.5 363.5,207.5C 362.624,207.631 361.957,207.298 361.5,206.5C 362.833,204.833 364.167,203.167 365.5,201.5C 364.277,200.386 362.944,200.219 361.5,201C 359.116,204.358 357.949,204.191 358,200.5C 359.167,199.333 360.333,198.167 361.5,197C 360.975,196.308 360.308,195.808 359.5,195.5C 357.807,197.027 355.973,198.36 354,199.5C 353.387,197.505 353.887,195.838 355.5,194.5C 356.167,194.5 356.5,194.167 356.5,193.5C 357.482,192.859 358.482,192.193 359.5,191.5C 362.061,193.64 364.395,195.973 366.5,198.5C 366.833,199.5 367.167,200.5 367.5,201.5C 367.66,203.355 366.993,204.688 365.5,205.5 Z"/></g>
<g><path style="opacity:0.261" fill="#fed0bf" d="M 306.5,201.5 C 307.71,201.932 308.71,202.599 309.5,203.5C 306.615,203.806 303.948,203.473 301.5,202.5C 303.415,202.784 305.081,202.451 306.5,201.5 Z"/></g>
<g><path style="opacity:0.223" fill="#fdd8ca" d="M 316.5,203.5 C 316.5,203.167 316.5,202.833 316.5,202.5C 318.857,202.337 321.19,202.503 323.5,203C 322.956,203.717 322.289,204.217 321.5,204.5C 320.081,203.549 318.415,203.216 316.5,203.5 Z"/></g>
<g><path style="opacity:0.765" fill="#d6f3c9" d="M 372.5,206.5 C 371.167,206.167 369.833,205.833 368.5,205.5C 370.423,202.782 371.756,203.116 372.5,206.5 Z"/></g>
<g><path style="opacity:0.994" fill="#90de6e" d="M 321.5,204.5 C 326.724,208.804 332.057,213.137 337.5,217.5C 338.833,219.5 340.5,221.167 342.5,222.5C 347.603,224.422 352.936,225.422 358.5,225.5C 359.791,225.263 360.791,225.596 361.5,226.5C 358.792,228.353 355.792,229.353 352.5,229.5C 356.24,236.648 359.74,243.982 363,251.5C 366.436,266.526 362.269,279.026 350.5,289C 340.354,295.437 329.354,299.604 317.5,301.5C 316.01,299.72 314.01,299.054 311.5,299.5C 323.357,297.603 334.691,293.769 345.5,288C 361.996,273.24 363.829,256.74 351,238.5C 349.841,243.097 349.008,247.764 348.5,252.5C 349.415,257.234 350.248,261.9 351,266.5C 347.282,263.384 344.282,259.718 342,255.5C 339.718,259.718 336.718,263.384 333,266.5C 333.867,259.732 334.7,252.899 335.5,246C 335.083,230.002 328.75,217.168 316.5,207.5C 317.965,206.263 319.632,205.263 321.5,204.5 Z"/></g>
<g><path style="opacity:0.018" fill="#f7fcf4" d="M 365.5,205.5 C 365.5,206.167 365.833,206.5 366.5,206.5C 365.4,207.605 364.733,208.938 364.5,210.5C 363.596,209.791 363.263,208.791 363.5,207.5C 363.833,206.5 364.5,205.833 365.5,205.5 Z"/></g>
<g><path style="opacity:0.996" fill="#88db64" d="M 346.5,220.5 C 342.693,221.226 340.026,219.893 338.5,216.5C 336.421,209.283 339.087,206.116 346.5,207C 349.318,210.338 350.151,214.171 349,218.5C 348.292,219.381 347.458,220.047 346.5,220.5 Z"/></g>
<g><path style="opacity:0.953" fill="#b8e9a0" d="M 368.5,205.5 C 369.833,205.833 371.167,206.167 372.5,206.5C 378.566,210.639 378.899,215.139 373.5,220C 372.365,220.749 371.365,220.583 370.5,219.5C 371.982,217.517 373.649,215.684 375.5,214C 375.167,213.667 374.833,213.333 374.5,213C 372.497,213.419 370.497,214.253 368.5,215.5C 367.692,215.192 367.025,214.692 366.5,214C 368.09,212.954 369.59,211.787 371,210.5C 371.563,209.275 371.23,208.275 370,207.5C 368.259,208.758 366.426,209.758 364.5,210.5C 364.733,208.938 365.4,207.605 366.5,206.5C 367.167,206.167 367.833,205.833 368.5,205.5 Z"/></g>
<g><path style="opacity:0.174" fill="#e0f6d6" d="M 338.5,216.5 C 340.026,219.893 342.693,221.226 346.5,220.5C 345.167,221.167 343.833,221.833 342.5,222.5C 340.5,221.167 338.833,219.5 337.5,217.5C 338.167,217.5 338.5,217.167 338.5,216.5 Z"/></g>
<g><path style="opacity:0.906" fill="#b5e89c" d="M 378.5,217.5 C 379.497,217.47 380.164,217.97 380.5,219C 379.465,220.274 378.298,221.44 377,222.5C 376.437,223.725 376.77,224.725 378,225.5C 379.667,224.5 381.333,223.5 383,222.5C 383.5,223 384,223.5 384.5,224C 382.089,225.955 379.589,227.789 377,229.5C 372.024,224.752 372.524,220.752 378.5,217.5 Z"/></g>
<g><path style="opacity:0.245" fill="#e6f8de" d="M 358.5,225.5 C 359.708,224.218 361.042,224.218 362.5,225.5C 362.376,226.107 362.043,226.44 361.5,226.5C 360.791,225.596 359.791,225.263 358.5,225.5 Z"/></g>
<g><path style="opacity:0.835" fill="#bdeba6" d="M 383.5,238.5 C 382.5,238.5 381.5,238.5 380.5,238.5C 380.281,237.325 380.614,236.325 381.5,235.5C 383.23,234.974 384.564,233.974 385.5,232.5C 385.167,231.5 384.5,230.833 383.5,230.5C 381.724,232.447 379.724,232.78 377.5,231.5C 379.705,229.474 382.205,227.808 385,226.5C 389.976,231.248 389.476,235.248 383.5,238.5 Z"/></g>
<g><path style="opacity:0.024" fill="#f6fdf3" d="M 354.5,231.5 C 355.833,232.167 355.833,232.167 354.5,231.5 Z"/></g>
<g><path style="opacity:0.765" fill="#c1ecac" d="M 390.5,239.5 C 387.95,240.358 385.45,241.358 383,242.5C 381.07,240.923 381.237,239.59 383.5,238.5C 386.833,237.5 390.167,236.5 393.5,235.5C 392.999,237.707 391.999,239.04 390.5,239.5 Z"/></g>
<g><path style="opacity:0.939" fill="#bdeba6" d="M 390.5,239.5 C 391.708,240.234 393.041,240.567 394.5,240.5C 393.483,243.027 393.483,245.527 394.5,248C 394.05,249.285 393.383,250.452 392.5,251.5C 393.949,252.172 395.282,252.839 396.5,253.5C 393.43,253.632 390.43,253.299 387.5,252.5C 388.96,250.537 390.627,248.704 392.5,247C 392.002,245.842 391.169,245.009 390,244.5C 388.435,245.952 387.102,247.619 386,249.5C 385.056,248.737 384.556,247.737 384.5,246.5C 386.442,244.176 388.442,241.843 390.5,239.5 Z"/></g>
<g><path style="opacity:0.737" fill="#cdf0bc" d="M 386.5,252.5 C 384.302,252.409 383.969,253.075 385.5,254.5C 383.974,253.895 382.974,252.729 382.5,251C 384.352,250.227 385.686,250.727 386.5,252.5 Z"/></g>
<g><path style="opacity:0.859" fill="#90de6f" d="M 386.5,252.5 C 386.833,252.5 387.167,252.5 387.5,252.5C 390.43,253.299 393.43,253.632 396.5,253.5C 395.432,254.434 394.099,254.768 392.5,254.5C 390.167,254.5 387.833,254.5 385.5,254.5C 383.969,253.075 384.302,252.409 386.5,252.5 Z"/></g>
<g><path style="opacity:0.22" fill="#f0fbec" d="M 396.5,253.5 C 397.043,253.56 397.376,253.893 397.5,254.5C 395.701,255.788 394.035,255.788 392.5,254.5C 394.099,254.768 395.432,254.434 396.5,253.5 Z"/></g>
<g><path style="opacity:0.816" fill="#ffb9a2" d="M 278.5,261.5 C 278.5,262.833 279.167,263.5 280.5,263.5C 276.164,267.523 275.497,266.856 278.5,261.5 Z"/></g>
<g><path style="opacity:0.275" fill="#ffd1c2" d="M 304.5,262.5 C 306.273,263.314 306.773,264.648 306,266.5C 304.955,265.627 304.122,264.627 303.5,263.5C 304.167,263.5 304.5,263.167 304.5,262.5 Z"/></g>
<g><path style="opacity:0.167" fill="#e1f6d7" d="M 229.5,289.5 C 228.508,289.672 227.842,289.338 227.5,288.5C 228.623,287.243 229.289,287.576 229.5,289.5 Z"/></g>
<g><path style="opacity:0.988" fill="#ff9572" d="M 162.5,289.5 C 163.5,289.5 164.5,289.5 165.5,289.5C 165.657,290.873 165.49,292.207 165,293.5C 161.967,298.372 159.133,303.372 156.5,308.5C 155.311,309.429 153.978,309.762 152.5,309.5C 154.491,302.172 157.825,295.505 162.5,289.5 Z"/></g>
<g><path style="opacity:0.987" fill="#ff916d" d="M 207.5,311.5 C 208.82,310.058 210.486,309.392 212.5,309.5C 212.093,317.369 210.593,325.036 208,332.5C 205.605,333.798 204.438,332.965 204.5,330C 205.598,325.793 206.431,321.626 207,317.5C 203.869,321.633 200.369,325.466 196.5,329C 195.5,329.667 194.5,329.667 193.5,329C 192.527,323.593 192.193,318.093 192.5,312.5C 192.655,309.147 191.988,308.814 190.5,311.5C 188.896,316.712 186.729,321.712 184,326.5C 182.989,327.337 181.822,327.67 180.5,327.5C 182.29,317.597 186.457,308.93 193,301.5C 193.945,301.905 194.612,302.572 195,303.5C 195.942,309.803 196.609,316.137 197,322.5C 200.002,318.332 203.502,314.665 207.5,311.5 Z"/></g>
<g><path style="opacity:0.976" fill="#ffa283" d="M 168.5,306.5 C 172.511,306.502 176.178,307.668 179.5,310C 180.337,311.011 180.67,312.178 180.5,313.5C 176.56,313.242 172.893,312.076 169.5,310C 168.663,308.989 168.33,307.822 168.5,306.5 Z"/></g>
<g><path style="opacity:0.353" fill="#ffcebe" d="M 212.5,309.5 C 210.486,309.392 208.82,310.058 207.5,311.5C 207.414,310.504 207.748,309.671 208.5,309C 210.066,308.235 211.399,308.402 212.5,309.5 Z"/></g>
<g><path style="opacity:0.09" fill="#ffece6" d="M 192.5,312.5 C 191.833,312.167 191.167,311.833 190.5,311.5C 191.988,308.814 192.655,309.147 192.5,312.5 Z"/></g>
<g><path style="opacity:0.986" fill="#ff906c" d="M 226.5,312.5 C 229.547,311.855 231.713,312.855 233,315.5C 233.831,323.888 233.497,332.221 232,340.5C 230.989,341.337 229.822,341.67 228.5,341.5C 228.5,339.167 228.5,336.833 228.5,334.5C 225.624,334.073 222.791,333.406 220,332.5C 218.389,334.21 216.889,336.043 215.5,338C 214.552,338.483 213.552,338.649 212.5,338.5C 213.074,334.675 214.241,331.009 216,327.5C 219.017,322.121 222.517,317.121 226.5,312.5 Z M 228.5,316.5 C 229.812,321.015 229.812,325.682 228.5,330.5C 225.944,329.949 223.611,328.949 221.5,327.5C 223.594,323.636 225.928,319.969 228.5,316.5 Z"/></g>
<g><path style="opacity:0.991" fill="#ff926e" d="M 244.5,317.5 C 246.39,317.297 247.89,317.963 249,319.5C 251.057,325.281 253.39,330.947 256,336.5C 257.209,331.452 258.542,326.452 260,321.5C 262.395,320.202 263.562,321.035 263.5,324C 262.566,331.527 260.566,338.694 257.5,345.5C 256.094,346.668 254.928,346.335 254,344.5C 251.667,338.5 249.333,332.5 247,326.5C 245.744,331.448 244.744,336.448 244,341.5C 242.951,343.107 241.451,343.773 239.5,343.5C 240.214,334.644 241.881,325.977 244.5,317.5 Z"/></g>
<g><path style="opacity:0.987" fill="#ff926f" d="M 324.5,323.5 C 323.5,323.5 322.5,323.5 321.5,323.5C 321.216,325.415 321.549,327.081 322.5,328.5C 322.5,329.5 322.5,330.5 322.5,331.5C 325.249,331.726 327.916,331.393 330.5,330.5C 331.646,331.145 332.646,331.978 333.5,333C 330.79,334.747 327.79,335.747 324.5,336C 323.252,339.118 323.586,342.118 325.5,345C 327.931,345.252 330.265,344.752 332.5,343.5C 333.614,344.723 333.781,346.056 333,347.5C 329.44,350.491 325.773,350.824 322,348.5C 319.573,340.181 318.073,331.681 317.5,323C 317.645,322.228 317.978,321.561 318.5,321C 322.79,320.077 327.123,319.577 331.5,319.5C 331.67,320.822 331.337,321.989 330.5,323C 328.527,323.495 326.527,323.662 324.5,323.5 Z"/></g>
<g><path style="opacity:0.983" fill="#ff8c67" d="M 282.5,347.5 C 282.5,345.5 282.5,343.5 282.5,341.5C 280.167,341.5 277.833,341.5 275.5,341.5C 271.759,341.587 269.759,343.587 269.5,347.5C 268.311,348.429 266.978,348.762 265.5,348.5C 267.749,339.256 270.916,330.256 275,321.5C 278.362,318.803 281.028,319.469 283,323.5C 284.734,330.744 285.901,338.078 286.5,345.5C 286.297,347.208 285.464,348.541 284,349.5C 283.283,348.956 282.783,348.289 282.5,347.5 Z M 281.5,337.5 C 278.302,338.036 275.635,337.369 273.5,335.5C 278.427,320.7 281.094,321.366 281.5,337.5 Z"/></g>
<g><path style="opacity:0.988" fill="#ff9471" d="M 300.5,320.5 C 304.849,319.577 308.183,320.91 310.5,324.5C 310.113,325.72 309.28,326.387 308,326.5C 302.003,323.83 298.003,325.83 296,332.5C 294.392,339.274 296.559,344.274 302.5,347.5C 305.865,346.453 307.532,344.119 307.5,340.5C 305.533,340.261 303.699,340.594 302,341.5C 299.101,340.126 298.934,338.626 301.5,337C 304.723,335.874 307.889,335.707 311,336.5C 313.083,347.07 308.916,351.904 298.5,351C 296,349.833 294.167,348 293,345.5C 289.191,335.104 291.691,326.77 300.5,320.5 Z"/></g>
<g><path style="opacity:0.306" fill="#ffccbd" d="M 324.5,323.5 C 323.032,324.779 322.365,326.446 322.5,328.5C 321.549,327.081 321.216,325.415 321.5,323.5C 322.5,323.5 323.5,323.5 324.5,323.5 Z"/></g>
<g><path style="opacity:0.067" fill="#ffe1d8" d="M 273.5,335.5 C 275.635,337.369 278.302,338.036 281.5,337.5C 278.713,338.477 275.713,338.81 272.5,338.5C 272.263,337.209 272.596,336.209 273.5,335.5 Z"/></g>
<g><path style="opacity:0.212" fill="#ffe6de" d="M 275.5,341.5 C 277.833,341.5 280.167,341.5 282.5,341.5C 282.5,343.5 282.5,345.5 282.5,347.5C 281.549,346.081 281.216,344.415 281.5,342.5C 279.265,342.795 277.265,342.461 275.5,341.5 Z"/></g>
</svg>
